<svg width="35" height="39" viewBox="0 0 35 39" fill="none" xmlns="http://www.w3.org/2000/svg">
<path d="M23.5 15V9C23.5 6.172 23.5 4.757 22.621 3.879C21.743 3 20.328 3 17.5 3H13.5C10.672 3 9.257 3 8.379 3.879C7.5 4.757 7.5 6.172 7.5 9V15C7.5 17.828 7.5 19.243 8.379 20.121C9.257 21 10.672 21 13.5 21H25.5M11.5 8H19.5M11.5 12H19.5M11.5 16H15.5" stroke="#1E1E1E" stroke-width="1.5" stroke-linecap="round" stroke-linejoin="round"/>
<path d="M23.5 8H24.5C25.914 8 26.621 8 27.06 8.44C27.5 8.879 27.5 9.586 27.5 11V19C27.5 19.5304 27.2893 20.0391 26.9142 20.4142C26.5391 20.7893 26.0304 21 25.5 21C24.9696 21 24.4609 20.7893 24.0858 20.4142C23.7107 20.0391 23.5 19.5304 23.5 19V8Z" stroke="#1E1E1E" stroke-width="1.5" stroke-linecap="round" stroke-linejoin="round"/>
<path d="M0.991211 37V29H5.81934V29.8594H1.95996V32.5625H5.56934V33.4219H1.95996V36.1406H5.88184V37H0.991211ZM12.3467 31L10.1279 37H9.19043L6.97168 31H7.97168L9.62793 35.7812H9.69043L11.3467 31H12.3467ZM15.8643 37.125C15.2861 37.125 14.7874 36.9974 14.3682 36.7422C13.9515 36.4844 13.6299 36.125 13.4033 35.6641C13.1794 35.2005 13.0674 34.6615 13.0674 34.0469C13.0674 33.4323 13.1794 32.8906 13.4033 32.4219C13.6299 31.9505 13.945 31.5833 14.3486 31.3203C14.7549 31.0547 15.2288 30.9219 15.7705 30.9219C16.083 30.9219 16.3916 30.974 16.6963 31.0781C17.001 31.1823 17.2783 31.3516 17.5283 31.5859C17.7783 31.8177 17.9775 32.125 18.126 32.5078C18.2744 32.8906 18.3486 33.362 18.3486 33.9219V34.3125H13.7236V33.5156H17.4111C17.4111 33.1771 17.3434 32.875 17.208 32.6094C17.0752 32.3437 16.8851 32.1341 16.6377 31.9805C16.3929 31.8268 16.1038 31.75 15.7705 31.75C15.4033 31.75 15.0856 31.8411 14.8174 32.0234C14.5518 32.2031 14.3473 32.4375 14.2041 32.7266C14.0609 33.0156 13.9893 33.3255 13.9893 33.6562V34.1875C13.9893 34.6406 14.0674 35.0247 14.2236 35.3398C14.3825 35.6523 14.6025 35.8906 14.8838 36.0547C15.165 36.2161 15.4919 36.2969 15.8643 36.2969C16.1064 36.2969 16.3252 36.263 16.5205 36.1953C16.7184 36.125 16.889 36.0208 17.0322 35.8828C17.1755 35.7422 17.2861 35.5677 17.3643 35.3594L18.2549 35.6094C18.1611 35.9115 18.0036 36.1771 17.7822 36.4062C17.5609 36.6328 17.2874 36.8099 16.9619 36.9375C16.6364 37.0625 16.2705 37.125 15.8643 37.125ZM20.6729 33.3906V37H19.751V31H20.6416V31.9375H20.7197C20.8604 31.6328 21.0739 31.388 21.3604 31.2031C21.6468 31.0156 22.0166 30.9219 22.4697 30.9219C22.876 30.9219 23.2314 31.0052 23.5361 31.1719C23.8408 31.3359 24.0778 31.5859 24.2471 31.9219C24.4163 32.2552 24.501 32.6771 24.501 33.1875V37H23.5791V33.25C23.5791 32.7786 23.4567 32.4115 23.2119 32.1484C22.9671 31.8828 22.6312 31.75 22.2041 31.75C21.9098 31.75 21.6468 31.8138 21.415 31.9414C21.1859 32.069 21.0049 32.2552 20.8721 32.5C20.7393 32.7448 20.6729 33.0417 20.6729 33.3906ZM28.7949 31V31.7812H25.6855V31H28.7949ZM26.5918 29.5625H27.5137V35.2812C27.5137 35.5417 27.5514 35.737 27.627 35.8672C27.7051 35.9948 27.804 36.0807 27.9238 36.125C28.0462 36.1667 28.1751 36.1875 28.3105 36.1875C28.4121 36.1875 28.4954 36.1823 28.5605 36.1719C28.6257 36.1589 28.6777 36.1484 28.7168 36.1406L28.9043 36.9687C28.8418 36.9922 28.7546 37.0156 28.6426 37.0391C28.5306 37.0651 28.3887 37.0781 28.2168 37.0781C27.9564 37.0781 27.7012 37.0221 27.4512 36.9102C27.2038 36.7982 26.998 36.6276 26.834 36.3984C26.6725 36.1693 26.5918 35.8802 26.5918 35.5312V29.5625ZM34.3242 32.3437L33.4961 32.5781C33.444 32.4401 33.3672 32.306 33.2656 32.1758C33.1667 32.043 33.0313 31.9336 32.8594 31.8477C32.6875 31.7617 32.4674 31.7187 32.1992 31.7187C31.832 31.7187 31.526 31.8034 31.2813 31.9727C31.0391 32.1393 30.918 32.3516 30.918 32.6094C30.918 32.8385 31.0013 33.0195 31.168 33.1523C31.3346 33.2852 31.5951 33.3958 31.9492 33.4844L32.8398 33.7031C33.3763 33.8333 33.776 34.0326 34.0391 34.3008C34.3021 34.5664 34.4336 34.9089 34.4336 35.3281C34.4336 35.6719 34.3346 35.9792 34.1367 36.25C33.9414 36.5208 33.668 36.7344 33.3164 36.8906C32.9648 37.0469 32.556 37.125 32.0898 37.125C31.4779 37.125 30.9714 36.9922 30.5703 36.7266C30.1693 36.4609 29.9154 36.0729 29.8086 35.5625L30.6836 35.3437C30.7669 35.6667 30.9245 35.9089 31.1563 36.0703C31.3906 36.2318 31.6966 36.3125 32.0742 36.3125C32.5039 36.3125 32.8451 36.2214 33.0977 36.0391C33.3529 35.8542 33.4805 35.6328 33.4805 35.375C33.4805 35.1667 33.4076 34.9922 33.2617 34.8516C33.1159 34.7083 32.8919 34.6016 32.5898 34.5312L31.5898 34.2969C31.0404 34.1667 30.6367 33.9648 30.3789 33.6914C30.1237 33.4154 29.9961 33.0703 29.9961 32.6562C29.9961 32.3177 30.0911 32.0182 30.2813 31.7578C30.474 31.4974 30.7357 31.293 31.0664 31.1445C31.3997 30.9961 31.7773 30.9219 32.1992 30.9219C32.793 30.9219 33.2591 31.0521 33.5977 31.3125C33.9388 31.5729 34.181 31.9167 34.3242 32.3437Z" fill="#1E1E1E"/>
</svg>
