<svg width="127" height="116" viewBox="0 0 127 116" fill="none" xmlns="http://www.w3.org/2000/svg">
<rect width="127" height="116" rx="10" fill="#D9D9D9"/>
<path fill-rule="evenodd" clip-rule="evenodd" d="M63.9997 29.3334C64.5301 29.3334 65.0388 29.5441 65.4139 29.9192C65.789 30.2942 65.9997 30.8029 65.9997 31.3334V60.5947L70.4797 55.3654C70.6506 55.1658 70.8591 55.0018 71.0934 54.8828C71.3276 54.7637 71.5831 54.692 71.8451 54.6717C72.107 54.6514 72.3705 54.6829 72.6203 54.7644C72.8701 54.8459 73.1014 54.9758 73.301 55.1467C73.5006 55.3176 73.6646 55.5261 73.7836 55.7604C73.9026 55.9947 73.9744 56.2501 73.9947 56.5121C74.015 56.7741 73.9835 57.0375 73.902 57.2873C73.8205 57.5371 73.6906 57.7684 73.5197 57.968L65.5197 67.3014C65.3319 67.5209 65.0988 67.6972 64.8364 67.8181C64.574 67.9389 64.2886 68.0015 63.9997 68.0015C63.7108 68.0015 63.4253 67.9389 63.1629 67.8181C62.9005 67.6972 62.6674 67.5209 62.4797 67.3014L54.4797 57.968C54.3088 57.7684 54.1789 57.5371 54.0974 57.2873C54.0159 57.0375 53.9844 56.7741 54.0047 56.5121C54.025 56.2501 54.0967 55.9947 54.2157 55.7604C54.3347 55.5261 54.4987 55.3176 54.6983 55.1467C54.8979 54.9758 55.1293 54.8459 55.3791 54.7644C55.6289 54.6829 55.8923 54.6514 56.1543 54.6717C56.4163 54.692 56.6717 54.7637 56.906 54.8828C57.1402 55.0018 57.3488 55.1658 57.5197 55.3654L61.9997 60.592V31.3334C61.9997 30.8029 62.2104 30.2942 62.5855 29.9192C62.9605 29.5441 63.4692 29.3334 63.9997 29.3334ZM50.6557 48.0054C51.1861 48.0025 51.6959 48.2105 52.073 48.5836C52.4501 48.9567 52.6635 49.4643 52.6663 49.9947C52.6692 50.5251 52.4612 51.035 52.0881 51.412C51.715 51.7891 51.2074 52.0025 50.677 52.0054C47.7623 52.0214 45.6957 52.096 44.125 52.384C42.6157 52.664 41.7383 53.1094 41.0903 53.7574C40.3517 54.496 39.8717 55.5334 39.6077 57.4907C39.3383 59.504 39.333 62.1734 39.333 66V68.6667C39.333 72.496 39.3383 75.1654 39.6077 77.1787C39.8717 79.136 40.3543 80.1707 41.0903 80.912C41.829 81.648 42.8637 82.128 44.8237 82.392C46.8343 82.664 49.5063 82.6667 53.333 82.6667H74.6663C78.493 82.6667 81.1623 82.664 83.1783 82.392C85.1357 82.128 86.1703 81.648 86.909 80.9094C87.6477 80.1707 88.1277 79.136 88.3917 77.1787C88.661 75.1654 88.6663 72.496 88.6663 68.6667V66C88.6663 62.1734 88.661 59.504 88.3917 57.488C88.1277 55.5334 87.645 54.496 86.909 53.7574C86.2583 53.1094 85.3837 52.664 83.8743 52.384C82.3037 52.096 80.237 52.0214 77.3223 52.0054C77.0597 52.004 76.7999 51.9509 76.5578 51.849C76.3157 51.7472 76.096 51.5988 75.9112 51.412C75.7265 51.2253 75.5804 51.0041 75.4812 50.7609C75.3819 50.5177 75.3316 50.2574 75.333 49.9947C75.3344 49.7321 75.3875 49.4723 75.4893 49.2302C75.5911 48.988 75.7396 48.7683 75.9263 48.5836C76.113 48.3989 76.3343 48.2527 76.5775 48.1535C76.8207 48.0543 77.081 48.004 77.3437 48.0054C80.229 48.0214 82.6317 48.0907 84.597 48.4507C86.6183 48.824 88.3383 49.5307 89.7383 50.9307C91.3437 52.5334 92.0317 54.5574 92.357 56.9574C92.6663 59.2667 92.6663 62.208 92.6663 65.8534V68.8134C92.6663 72.4614 92.6663 75.4 92.357 77.712C92.0317 80.112 91.3437 82.1334 89.7383 83.7387C88.133 85.344 86.1117 86.032 83.7117 86.3574C81.3997 86.6667 78.4583 86.6667 74.813 86.6667H53.1863C49.541 86.6667 46.5997 86.6667 44.2877 86.3574C41.8877 86.0347 39.8663 85.344 38.261 83.7387C36.6557 82.1334 35.9677 80.112 35.645 77.712C35.333 75.4 35.333 72.4587 35.333 68.8134V65.8534C35.333 62.208 35.333 59.2667 35.645 56.9547C35.965 54.5547 36.6583 52.5334 38.261 50.928C39.661 49.5307 41.381 48.8214 43.4023 48.4507C45.3677 48.0907 47.7703 48.0214 50.6557 48.0054Z" fill="#1E1E1E"/>
</svg>
