<svg width="34" height="31" viewBox="0 0 34 31" fill="none" xmlns="http://www.w3.org/2000/svg">
<rect x="0.5" y="0.5" width="33" height="30" rx="4.5" fill="#FBFBFB" stroke="#D9D9D9"/>
<path fill-rule="evenodd" clip-rule="evenodd" d="M12.598 8.487C12.865 7.177 14.031 6.25 15.366 6.25H18.634C19.969 6.25 21.134 7.177 21.402 8.487C21.4315 8.63125 21.5088 8.76137 21.6212 8.85642C21.7337 8.95147 21.8748 9.00591 22.022 9.011H22.055C23.458 9.073 24.536 9.245 25.436 9.836C26.003 10.208 26.491 10.686 26.871 11.245C27.344 11.939 27.552 12.737 27.652 13.701C27.75 14.644 27.75 15.825 27.75 17.321V17.406C27.75 18.902 27.75 20.084 27.652 21.026C27.552 21.99 27.344 22.788 26.871 23.483C26.4889 24.0416 26.0015 24.5202 25.436 24.892C24.733 25.353 23.926 25.557 22.948 25.654C21.99 25.75 20.789 25.75 19.263 25.75H14.737C13.211 25.75 12.01 25.75 11.052 25.654C10.074 25.557 9.267 25.354 8.564 24.892C7.99844 24.5199 7.51099 24.0409 7.129 23.482C6.656 22.788 6.448 21.99 6.348 21.026C6.25 20.084 6.25 18.902 6.25 17.406V17.321C6.25 15.825 6.25 14.644 6.348 13.701C6.448 12.737 6.656 11.939 7.129 11.245C7.51099 10.6861 7.99844 10.2071 8.564 9.835C9.464 9.245 10.542 9.073 11.945 9.012L11.962 9.011H11.978C12.1252 9.00591 12.2663 8.95147 12.3788 8.85642C12.4912 8.76137 12.5685 8.63125 12.598 8.487ZM15.366 7.75C14.726 7.75 14.189 8.193 14.068 8.786C13.873 9.746 13.021 10.502 11.996 10.511C10.648 10.571 9.926 10.736 9.386 11.09C8.98545 11.3539 8.64004 11.6932 8.369 12.089C8.093 12.494 7.927 13.013 7.839 13.856C7.751 14.712 7.75 15.816 7.75 17.364C7.75 18.912 7.75 20.015 7.84 20.871C7.927 21.714 8.093 22.233 8.37 22.639C8.638 23.033 8.983 23.373 9.387 23.638C9.804 23.911 10.338 24.076 11.201 24.162C12.075 24.249 13.201 24.25 14.778 24.25H19.222C20.798 24.25 21.924 24.25 22.799 24.162C23.662 24.076 24.196 23.912 24.613 23.638C25.017 23.373 25.363 23.033 25.631 22.638C25.907 22.233 26.073 21.714 26.161 20.871C26.249 20.015 26.25 18.911 26.25 17.364C26.25 15.817 26.25 14.712 26.16 13.856C26.073 13.013 25.907 12.494 25.63 12.089C25.3591 11.6929 25.0136 11.3532 24.613 11.089C24.075 10.736 23.353 10.571 22.003 10.511C20.979 10.501 20.127 9.747 19.932 8.786C19.868 8.49027 19.7039 8.22569 19.4674 8.03694C19.2309 7.84819 18.9366 7.74684 18.634 7.75H15.366ZM17 14.75C16.4033 14.75 15.831 14.9871 15.409 15.409C14.9871 15.831 14.75 16.4033 14.75 17C14.75 17.5967 14.9871 18.169 15.409 18.591C15.831 19.0129 16.4033 19.25 17 19.25C17.5967 19.25 18.169 19.0129 18.591 18.591C19.0129 18.169 19.25 17.5967 19.25 17C19.25 16.4033 19.0129 15.831 18.591 15.409C18.169 14.9871 17.5967 14.75 17 14.75ZM13.25 17C13.25 16.0054 13.6451 15.0516 14.3483 14.3483C15.0516 13.6451 16.0054 13.25 17 13.25C17.9946 13.25 18.9484 13.6451 19.6517 14.3483C20.3549 15.0516 20.75 16.0054 20.75 17C20.75 17.9946 20.3549 18.9484 19.6517 19.6517C18.9484 20.3549 17.9946 20.75 17 20.75C16.0054 20.75 15.0516 20.3549 14.3483 19.6517C13.6451 18.9484 13.25 17.9946 13.25 17ZM22.25 14C22.25 13.8011 22.329 13.6103 22.4697 13.4697C22.6103 13.329 22.8011 13.25 23 13.25H24C24.1989 13.25 24.3897 13.329 24.5303 13.4697C24.671 13.6103 24.75 13.8011 24.75 14C24.75 14.1989 24.671 14.3897 24.5303 14.5303C24.3897 14.671 24.1989 14.75 24 14.75H23C22.8011 14.75 22.6103 14.671 22.4697 14.5303C22.329 14.3897 22.25 14.1989 22.25 14Z" fill="#1E1E1E"/>
</svg>
