<svg width="44" height="39" viewBox="0 0 44 39" fill="none" xmlns="http://www.w3.org/2000/svg">
<path d="M16.578 15.482C15.163 16.324 11.453 18.044 13.713 20.197C14.816 21.248 16.045 22 17.59 22H26.408C27.954 22 29.183 21.248 30.286 20.197C32.546 18.044 28.836 16.324 27.421 15.482C25.7788 14.5119 23.9063 14.0001 21.999 14.0001C20.0916 14.0001 18.2202 14.5119 16.578 15.482ZM26.5 6.5C26.5 7.69347 26.0259 8.83807 25.1819 9.68198C24.338 10.5259 23.1934 11 22 11C20.8065 11 19.6619 10.5259 18.818 9.68198C17.9741 8.83807 17.5 7.69347 17.5 6.5C17.5 5.30653 17.9741 4.16193 18.818 3.31802C19.6619 2.47411 20.8065 2 22 2C23.1934 2 24.338 2.47411 25.1819 3.31802C26.0259 4.16193 26.5 5.30653 26.5 6.5Z" stroke="#D9D9D9" stroke-width="1.5" stroke-linecap="round" stroke-linejoin="round"/>
<path d="M1.74268 37H0.727051L3.66455 29H4.66455L7.60205 37H6.58643L4.1958 30.2656H4.1333L1.74268 37ZM2.11768 33.875H6.21143V34.7344H2.11768V33.875ZM11.1606 37.125C10.5981 37.125 10.1138 36.9922 9.70752 36.7266C9.30127 36.4609 8.98877 36.0951 8.77002 35.6289C8.55127 35.1628 8.44189 34.6302 8.44189 34.0312C8.44189 33.4219 8.55387 32.8841 8.77783 32.418C9.00439 31.9492 9.3195 31.5833 9.72314 31.3203C10.1294 31.0547 10.6034 30.9219 11.145 30.9219C11.5669 30.9219 11.9471 31 12.2856 31.1562C12.6242 31.3125 12.9015 31.5312 13.1177 31.8125C13.3338 32.0937 13.4679 32.4219 13.52 32.7969H12.5981C12.5278 32.5234 12.3716 32.2812 12.1294 32.0703C11.8898 31.8568 11.5669 31.75 11.1606 31.75C10.8013 31.75 10.4862 31.8437 10.2153 32.0312C9.9471 32.2161 9.73747 32.4779 9.58643 32.8164C9.43799 33.1523 9.36377 33.5469 9.36377 34C9.36377 34.4635 9.43669 34.8672 9.58252 35.2109C9.73096 35.5547 9.93929 35.8216 10.2075 36.0117C10.4784 36.2018 10.7961 36.2969 11.1606 36.2969C11.4002 36.2969 11.6177 36.2552 11.813 36.1719C12.0083 36.0885 12.1737 35.9688 12.3091 35.8125C12.4445 35.6562 12.5409 35.4687 12.5981 35.25H13.52C13.4679 35.6042 13.339 35.9232 13.1333 36.207C12.9302 36.4883 12.6606 36.7122 12.3247 36.8789C11.9914 37.043 11.6034 37.125 11.1606 37.125ZM17.3052 37.125C16.7427 37.125 16.2583 36.9922 15.8521 36.7266C15.4458 36.4609 15.1333 36.0951 14.9146 35.6289C14.6958 35.1628 14.5864 34.6302 14.5864 34.0312C14.5864 33.4219 14.6984 32.8841 14.9224 32.418C15.1489 31.9492 15.464 31.5833 15.8677 31.3203C16.2739 31.0547 16.7479 30.9219 17.2896 30.9219C17.7114 30.9219 18.0916 31 18.4302 31.1562C18.7687 31.3125 19.0461 31.5312 19.2622 31.8125C19.4784 32.0937 19.6125 32.4219 19.6646 32.7969H18.7427C18.6724 32.5234 18.5161 32.2812 18.2739 32.0703C18.0343 31.8568 17.7114 31.75 17.3052 31.75C16.9458 31.75 16.6307 31.8437 16.3599 32.0312C16.0916 32.2161 15.882 32.4779 15.731 32.8164C15.5825 33.1523 15.5083 33.5469 15.5083 34C15.5083 34.4635 15.5812 34.8672 15.7271 35.2109C15.8755 35.5547 16.0838 35.8216 16.3521 36.0117C16.6229 36.2018 16.9406 36.2969 17.3052 36.2969C17.5448 36.2969 17.7622 36.2552 17.9575 36.1719C18.1528 36.0885 18.3182 35.9688 18.4536 35.8125C18.589 35.6562 18.6854 35.4687 18.7427 35.25H19.6646C19.6125 35.6042 19.4836 35.9232 19.2778 36.207C19.0747 36.4883 18.8052 36.7122 18.4692 36.8789C18.1359 37.043 17.7479 37.125 17.3052 37.125ZM23.4497 37.125C22.908 37.125 22.4328 36.9961 22.0239 36.7383C21.6177 36.4805 21.3 36.1198 21.0708 35.6562C20.8442 35.1927 20.731 34.651 20.731 34.0312C20.731 33.4062 20.8442 32.8607 21.0708 32.3945C21.3 31.9284 21.6177 31.5664 22.0239 31.3086C22.4328 31.0508 22.908 30.9219 23.4497 30.9219C23.9914 30.9219 24.4653 31.0508 24.8716 31.3086C25.2804 31.5664 25.5981 31.9284 25.8247 32.3945C26.0539 32.8607 26.1685 33.4062 26.1685 34.0312C26.1685 34.651 26.0539 35.1927 25.8247 35.6562C25.5981 36.1198 25.2804 36.4805 24.8716 36.7383C24.4653 36.9961 23.9914 37.125 23.4497 37.125ZM23.4497 36.2969C23.8612 36.2969 24.1997 36.1914 24.4653 35.9805C24.731 35.7695 24.9276 35.4922 25.0552 35.1484C25.1828 34.8047 25.2466 34.4323 25.2466 34.0312C25.2466 33.6302 25.1828 33.2565 25.0552 32.9102C24.9276 32.5638 24.731 32.2839 24.4653 32.0703C24.1997 31.8568 23.8612 31.75 23.4497 31.75C23.0382 31.75 22.6997 31.8568 22.4341 32.0703C22.1685 32.2839 21.9718 32.5638 21.8442 32.9102C21.7166 33.2565 21.6528 33.6302 21.6528 34.0312C21.6528 34.4323 21.7166 34.8047 21.8442 35.1484C21.9718 35.4922 22.1685 35.7695 22.4341 35.9805C22.6997 36.1914 23.0382 36.2969 23.4497 36.2969ZM31.3569 34.5469V31H32.2788V37H31.3569V35.9844H31.2944C31.1538 36.2891 30.9351 36.5482 30.6382 36.7617C30.3413 36.9727 29.9663 37.0781 29.5132 37.0781C29.1382 37.0781 28.8049 36.9961 28.5132 36.832C28.2215 36.6654 27.9924 36.4154 27.8257 36.082C27.659 35.7461 27.5757 35.3229 27.5757 34.8125V31H28.4976V34.75C28.4976 35.1875 28.62 35.5365 28.8647 35.7969C29.1121 36.0573 29.4272 36.1875 29.8101 36.1875C30.0392 36.1875 30.2723 36.1289 30.5093 36.0117C30.7489 35.8945 30.9494 35.7148 31.1108 35.4727C31.2749 35.2305 31.3569 34.9219 31.3569 34.5469ZM34.8892 33.3906V37H33.9673V31H34.8579V31.9375H34.936C35.0767 31.6328 35.2902 31.388 35.5767 31.2031C35.8631 31.0156 36.2329 30.9219 36.686 30.9219C37.0923 30.9219 37.4478 31.0052 37.7524 31.1719C38.0571 31.3359 38.2941 31.5859 38.4634 31.9219C38.6326 32.2552 38.7173 32.6771 38.7173 33.1875V37H37.7954V33.25C37.7954 32.7786 37.673 32.4115 37.4282 32.1484C37.1834 31.8828 36.8475 31.75 36.4204 31.75C36.1261 31.75 35.8631 31.8138 35.6313 31.9414C35.4022 32.069 35.2212 32.2552 35.0884 32.5C34.9556 32.7448 34.8892 33.0417 34.8892 33.3906ZM43.0112 31V31.7812H39.9019V31H43.0112ZM40.8081 29.5625H41.73V35.2812C41.73 35.5417 41.7677 35.737 41.8433 35.8672C41.9214 35.9948 42.0203 36.0807 42.1401 36.125C42.2625 36.1667 42.3914 36.1875 42.5269 36.1875C42.6284 36.1875 42.7118 36.1823 42.7769 36.1719C42.842 36.1589 42.894 36.1484 42.9331 36.1406L43.1206 36.9687C43.0581 36.9922 42.9709 37.0156 42.8589 37.0391C42.7469 37.0651 42.605 37.0781 42.4331 37.0781C42.1727 37.0781 41.9175 37.0221 41.6675 36.9102C41.4201 36.7982 41.2144 36.6276 41.0503 36.3984C40.8888 36.1693 40.8081 35.8802 40.8081 35.5312V29.5625Z" fill="#D9D9D9"/>
</svg>
