<svg width="37" height="39" viewBox="0 0 37 39" fill="none" xmlns="http://www.w3.org/2000/svg">
<path d="M21.9286 14.1428C21.9286 14.4838 21.7932 14.8108 21.5521 15.0519C21.3109 15.2931 20.9839 15.4285 20.6429 15.4285C20.3019 15.4285 19.9749 15.2931 19.7338 15.0519C19.4927 14.8108 19.3572 14.4838 19.3572 14.1428C19.3572 13.8018 19.4927 13.4748 19.7338 13.2337C19.9749 12.9925 20.3019 12.8571 20.6429 12.8571C20.9839 12.8571 21.3109 12.9925 21.5521 13.2337C21.7932 13.4748 21.9286 13.8018 21.9286 14.1428ZM23.2144 11.9999C23.3832 11.9999 23.5504 11.9667 23.7064 11.9021C23.8624 11.8375 24.0041 11.7428 24.1235 11.6234C24.2429 11.504 24.3376 11.3622 24.4022 11.2063C24.4668 11.0503 24.5001 10.8831 24.5001 10.7142C24.5001 10.5454 24.4668 10.3782 24.4022 10.2222C24.3376 10.0662 24.2429 9.92449 24.1235 9.8051C24.0041 9.68571 23.8624 9.591 23.7064 9.52639C23.5504 9.46177 23.3832 9.42852 23.2144 9.42852C22.8734 9.42852 22.5463 9.56398 22.3052 9.8051C22.0641 10.0462 21.9286 10.3732 21.9286 10.7142C21.9286 11.0552 22.0641 11.3823 22.3052 11.6234C22.5463 11.8645 22.8734 11.9999 23.2144 11.9999ZM11.2144 11.7857C11.2144 11.6152 11.2821 11.4517 11.4026 11.3311C11.5232 11.2105 11.6867 11.1428 11.8572 11.1428H13.3572V9.64281C13.3572 9.47231 13.4249 9.3088 13.5455 9.18824C13.6661 9.06768 13.8296 8.99995 14.0001 8.99995C14.1706 8.99995 14.3341 9.06768 14.4546 9.18824C14.5752 9.3088 14.6429 9.47231 14.6429 9.64281V11.1428H16.1429C16.3134 11.1428 16.4769 11.2105 16.5975 11.3311C16.7181 11.4517 16.7858 11.6152 16.7858 11.7857C16.7858 11.9562 16.7181 12.1197 16.5975 12.2402C16.4769 12.3608 16.3134 12.4285 16.1429 12.4285H14.6429V13.9294C14.6429 14.0999 14.5752 14.2634 14.4546 14.3839C14.3341 14.5045 14.1706 14.5722 14.0001 14.5722C13.8296 14.5722 13.6661 14.5045 13.5455 14.3839C13.4249 14.2634 13.3572 14.0999 13.3572 13.9294V12.4285H11.8572C11.6867 12.4285 11.5232 12.3608 11.4026 12.2402C11.2821 12.1197 11.2144 11.9562 11.2144 11.7857ZM8.21436 11.9999C8.21436 10.0677 8.98196 8.21451 10.3483 6.84817C11.7146 5.48183 13.5678 4.71423 15.5001 4.71423H21.5001C23.4324 4.71423 25.2855 5.48183 26.6518 6.84817C28.0182 8.21451 28.7858 10.0677 28.7858 11.9999C28.7858 13.9322 28.0182 15.7854 26.6518 17.1517C25.2855 18.5181 23.4324 19.2857 21.5001 19.2857H15.5001C13.5678 19.2857 11.7146 18.5181 10.3483 17.1517C8.98196 15.7854 8.21436 13.9322 8.21436 11.9999ZM15.5001 5.99995C13.9088 5.99995 12.3826 6.63209 11.2574 7.75731C10.1322 8.88253 9.50007 10.4086 9.50007 11.9999C9.50007 13.5912 10.1322 15.1174 11.2574 16.2426C12.3826 17.3678 13.9088 17.9999 15.5001 17.9999H21.5001C23.0914 17.9999 24.6175 17.3678 25.7427 16.2426C26.8679 15.1174 27.5001 13.5912 27.5001 11.9999C27.5001 10.4086 26.8679 8.88253 25.7427 7.75731C24.6175 6.63209 23.0914 5.99995 21.5001 5.99995H15.5001Z" fill="#D9D9D9"/>
<path d="M6.896 31.5C6.81006 31.237 6.69678 31.0013 6.55615 30.793C6.41813 30.582 6.25277 30.4023 6.06006 30.2539C5.86995 30.1055 5.65381 29.9922 5.41162 29.9141C5.16943 29.8359 4.90381 29.7969 4.61475 29.7969C4.14079 29.7969 3.7098 29.9193 3.32178 30.1641C2.93376 30.4089 2.62516 30.7695 2.396 31.2461C2.16683 31.7227 2.05225 32.3073 2.05225 33C2.05225 33.6927 2.16813 34.2773 2.3999 34.7539C2.63167 35.2305 2.94548 35.5911 3.34131 35.8359C3.73714 36.0807 4.18245 36.2031 4.67725 36.2031C5.13558 36.2031 5.53923 36.1055 5.88818 35.9102C6.23975 35.7122 6.51318 35.4336 6.7085 35.0742C6.90641 34.7122 7.00537 34.2865 7.00537 33.7969L7.30225 33.8594H4.896V33H7.94287V33.8594C7.94287 34.5182 7.80225 35.0911 7.521 35.5781C7.24235 36.0651 6.85693 36.4427 6.36475 36.7109C5.87516 36.9766 5.31266 37.1094 4.67725 37.1094C3.96891 37.1094 3.34652 36.9427 2.81006 36.6094C2.2762 36.276 1.85954 35.8021 1.56006 35.1875C1.26318 34.5729 1.11475 33.8437 1.11475 33C1.11475 32.3672 1.19938 31.7982 1.36865 31.293C1.54053 30.7852 1.78271 30.3529 2.09521 29.9961C2.40771 29.6393 2.77751 29.3659 3.20459 29.1758C3.63167 28.9857 4.10173 28.8906 4.61475 28.8906C5.03662 28.8906 5.42985 28.9544 5.79443 29.082C6.16162 29.207 6.48844 29.3854 6.7749 29.6172C7.06396 29.8464 7.30485 30.1211 7.49756 30.4414C7.69027 30.7591 7.82308 31.112 7.896 31.5H6.896ZM11.2427 37.1406C10.8625 37.1406 10.5174 37.069 10.2075 36.9258C9.89762 36.7799 9.65153 36.5703 9.46924 36.2969C9.28695 36.0208 9.1958 35.6875 9.1958 35.2969C9.1958 34.9531 9.26351 34.6745 9.39893 34.4609C9.53434 34.2448 9.71533 34.0755 9.94189 33.9531C10.1685 33.8307 10.4185 33.7396 10.6919 33.6797C10.9679 33.6172 11.2453 33.5677 11.5239 33.5313C11.8885 33.4844 12.1841 33.4492 12.4106 33.4258C12.6398 33.3997 12.8065 33.3568 12.9106 33.2969C13.0174 33.237 13.0708 33.1328 13.0708 32.9844V32.9531C13.0708 32.5677 12.9653 32.2682 12.7544 32.0547C12.5461 31.8411 12.2297 31.7344 11.8052 31.7344C11.3651 31.7344 11.02 31.8307 10.77 32.0234C10.52 32.2161 10.3442 32.4219 10.2427 32.6406L9.36768 32.3281C9.52393 31.9635 9.73226 31.6797 9.99268 31.4766C10.2557 31.2708 10.5422 31.1276 10.8521 31.0469C11.1646 30.9635 11.4718 30.9219 11.7739 30.9219C11.9666 30.9219 12.188 30.9453 12.438 30.9922C12.6906 31.0365 12.9341 31.1289 13.1685 31.2695C13.4054 31.4102 13.6021 31.6224 13.7583 31.9062C13.9146 32.1901 13.9927 32.5703 13.9927 33.0469V37H13.0708V36.1875H13.0239C12.9614 36.3177 12.8573 36.457 12.7114 36.6055C12.5656 36.7539 12.3716 36.8802 12.1294 36.9844C11.8872 37.0885 11.5916 37.1406 11.2427 37.1406ZM11.3833 36.3125C11.7479 36.3125 12.0552 36.2409 12.3052 36.0977C12.5578 35.9544 12.7479 35.7695 12.8755 35.543C13.0057 35.3164 13.0708 35.0781 13.0708 34.8281V33.9844C13.0317 34.0312 12.9458 34.0742 12.813 34.1133C12.6828 34.1497 12.5317 34.1823 12.3599 34.2109C12.1906 34.237 12.0252 34.2604 11.8638 34.2812C11.7049 34.2995 11.576 34.3151 11.4771 34.3281C11.2375 34.3594 11.0135 34.4102 10.8052 34.4805C10.5994 34.5482 10.4328 34.651 10.3052 34.7891C10.1802 34.9245 10.1177 35.1094 10.1177 35.3437C10.1177 35.6641 10.2362 35.9062 10.4731 36.0703C10.7127 36.2318 11.0161 36.3125 11.3833 36.3125ZM15.6753 37V31H16.5659V31.9375H16.644C16.769 31.6172 16.9709 31.3685 17.2495 31.1914C17.5282 31.0117 17.8628 30.9219 18.2534 30.9219C18.6493 30.9219 18.9787 31.0117 19.2417 31.1914C19.5073 31.3685 19.7144 31.6172 19.8628 31.9375H19.9253C20.0789 31.6276 20.3094 31.3815 20.6167 31.1992C20.924 31.0143 21.2925 30.9219 21.7222 30.9219C22.2586 30.9219 22.6974 31.0898 23.0386 31.4258C23.3797 31.7591 23.5503 32.2786 23.5503 32.9844V37H22.6284V32.9844C22.6284 32.5417 22.5073 32.2253 22.2651 32.0352C22.0229 31.8451 21.7378 31.75 21.4097 31.75C20.9878 31.75 20.661 31.8776 20.4292 32.1328C20.1974 32.3854 20.0815 32.7057 20.0815 33.0937V37H19.144V32.8906C19.144 32.5495 19.0334 32.2747 18.812 32.0664C18.5907 31.8555 18.3055 31.75 17.9565 31.75C17.717 31.75 17.493 31.8138 17.2847 31.9414C17.0789 32.069 16.9123 32.2461 16.7847 32.4727C16.6597 32.6966 16.5972 32.9557 16.5972 33.25V37H15.6753ZM27.7515 37.125C27.1733 37.125 26.6746 36.9974 26.2554 36.7422C25.8387 36.4844 25.5171 36.125 25.2905 35.6641C25.0666 35.2005 24.9546 34.6615 24.9546 34.0469C24.9546 33.4323 25.0666 32.8906 25.2905 32.4219C25.5171 31.9505 25.8322 31.5833 26.2358 31.3203C26.6421 31.0547 27.116 30.9219 27.6577 30.9219C27.9702 30.9219 28.2788 30.974 28.5835 31.0781C28.8882 31.1823 29.1655 31.3516 29.4155 31.5859C29.6655 31.8177 29.8647 32.125 30.0132 32.5078C30.1616 32.8906 30.2358 33.362 30.2358 33.9219V34.3125H25.6108V33.5156H29.2983C29.2983 33.1771 29.2306 32.875 29.0952 32.6094C28.9624 32.3437 28.7723 32.1341 28.5249 31.9805C28.2801 31.8268 27.991 31.75 27.6577 31.75C27.2905 31.75 26.9728 31.8411 26.7046 32.0234C26.439 32.2031 26.2345 32.4375 26.0913 32.7266C25.9481 33.0156 25.8765 33.3255 25.8765 33.6562V34.1875C25.8765 34.6406 25.9546 35.0247 26.1108 35.3398C26.2697 35.6523 26.4897 35.8906 26.771 36.0547C27.0522 36.2161 27.3791 36.2969 27.7515 36.2969C27.9937 36.2969 28.2124 36.263 28.4077 36.1953C28.6056 36.125 28.7762 36.0208 28.9194 35.8828C29.0627 35.7422 29.1733 35.5677 29.2515 35.3594L30.1421 35.6094C30.0483 35.9115 29.8908 36.1771 29.6694 36.4062C29.4481 36.6328 29.1746 36.8099 28.8491 36.9375C28.5236 37.0625 28.1577 37.125 27.7515 37.125ZM35.8882 32.3437L35.0601 32.5781C35.008 32.4401 34.9312 32.306 34.8296 32.1758C34.7306 32.043 34.5952 31.9336 34.4233 31.8477C34.2515 31.7617 34.0314 31.7187 33.7632 31.7187C33.396 31.7187 33.09 31.8034 32.8452 31.9727C32.603 32.1393 32.4819 32.3516 32.4819 32.6094C32.4819 32.8385 32.5653 33.0195 32.7319 33.1523C32.8986 33.2852 33.159 33.3958 33.5132 33.4844L34.4038 33.7031C34.9403 33.8333 35.34 34.0326 35.603 34.3008C35.866 34.5664 35.9976 34.9089 35.9976 35.3281C35.9976 35.6719 35.8986 35.9792 35.7007 36.25C35.5054 36.5208 35.2319 36.7344 34.8804 36.8906C34.5288 37.0469 34.12 37.125 33.6538 37.125C33.0418 37.125 32.5353 36.9922 32.1343 36.7266C31.7332 36.4609 31.4793 36.0729 31.3726 35.5625L32.2476 35.3437C32.3309 35.6667 32.4884 35.9089 32.7202 36.0703C32.9546 36.2318 33.2606 36.3125 33.6382 36.3125C34.0679 36.3125 34.409 36.2214 34.6616 36.0391C34.9168 35.8542 35.0444 35.6328 35.0444 35.375C35.0444 35.1667 34.9715 34.9922 34.8257 34.8516C34.6799 34.7083 34.4559 34.6016 34.1538 34.5312L33.1538 34.2969C32.6043 34.1667 32.2007 33.9648 31.9429 33.6914C31.6877 33.4154 31.5601 33.0703 31.5601 32.6562C31.5601 32.3177 31.6551 32.0182 31.8452 31.7578C32.0379 31.4974 32.2996 31.293 32.6304 31.1445C32.9637 30.9961 33.3413 30.9219 33.7632 30.9219C34.3569 30.9219 34.8231 31.0521 35.1616 31.3125C35.5028 31.5729 35.745 31.9167 35.8882 32.3437Z" fill="#D9D9D9"/>
</svg>
