<svg width="62" height="39" viewBox="0 0 62 39" fill="none" xmlns="http://www.w3.org/2000/svg">
<path d="M36 14C36.2652 14 36.5196 13.8946 36.7071 13.7071C36.8946 13.5196 37 13.2652 37 13C37 12.7348 36.8946 12.4804 36.7071 12.2929C36.5196 12.1054 36.2652 12 36 12C35.7348 12 35.4804 12.1054 35.2929 12.2929C35.1054 12.4804 35 12.7348 35 13C35 13.2652 35.1054 13.5196 35.2929 13.7071C35.4804 13.8946 35.7348 14 36 14ZM36 18C36.2652 18 36.5196 17.8946 36.7071 17.7071C36.8946 17.5196 37 17.2652 37 17C37 16.7348 36.8946 16.4804 36.7071 16.2929C36.5196 16.1054 36.2652 16 36 16C35.7348 16 35.4804 16.1054 35.2929 16.2929C35.1054 16.4804 35 16.7348 35 17C35 17.2652 35.1054 17.5196 35.2929 17.7071C35.4804 17.8946 35.7348 18 36 18ZM32 13C32 13.2652 31.8946 13.5196 31.7071 13.7071C31.5196 13.8946 31.2652 14 31 14C30.7348 14 30.4804 13.8946 30.2929 13.7071C30.1054 13.5196 30 13.2652 30 13C30 12.7348 30.1054 12.4804 30.2929 12.2929C30.4804 12.1054 30.7348 12 31 12C31.2652 12 31.5196 12.1054 31.7071 12.2929C31.8946 12.4804 32 12.7348 32 13ZM32 17C32 17.2652 31.8946 17.5196 31.7071 17.7071C31.5196 17.8946 31.2652 18 31 18C30.7348 18 30.4804 17.8946 30.2929 17.7071C30.1054 17.5196 30 17.2652 30 17C30 16.7348 30.1054 16.4804 30.2929 16.2929C30.4804 16.1054 30.7348 16 31 16C31.2652 16 31.5196 16.1054 31.7071 16.2929C31.8946 16.4804 32 16.7348 32 17ZM26 14C26.2652 14 26.5196 13.8946 26.7071 13.7071C26.8946 13.5196 27 13.2652 27 13C27 12.7348 26.8946 12.4804 26.7071 12.2929C26.5196 12.1054 26.2652 12 26 12C25.7348 12 25.4804 12.1054 25.2929 12.2929C25.1054 12.4804 25 12.7348 25 13C25 13.2652 25.1054 13.5196 25.2929 13.7071C25.4804 13.8946 25.7348 14 26 14ZM26 18C26.2652 18 26.5196 17.8946 26.7071 17.7071C26.8946 17.5196 27 17.2652 27 17C27 16.7348 26.8946 16.4804 26.7071 16.2929C26.5196 16.1054 26.2652 16 26 16C25.7348 16 25.4804 16.1054 25.2929 16.2929C25.1054 16.4804 25 16.7348 25 17C25 17.2652 25.1054 17.5196 25.2929 17.7071C25.4804 17.8946 25.7348 18 26 18Z" fill="#D9D9D9"/>
<path fill-rule="evenodd" clip-rule="evenodd" d="M26 1.75C26.1989 1.75 26.3897 1.82902 26.5303 1.96967C26.671 2.11032 26.75 2.30109 26.75 2.5V3.263C27.412 3.25 28.141 3.25 28.943 3.25H33.056C33.859 3.25 34.588 3.25 35.25 3.263V2.5C35.25 2.30109 35.329 2.11032 35.4696 1.96967C35.6103 1.82902 35.8011 1.75 36 1.75C36.1989 1.75 36.3897 1.82902 36.5303 1.96967C36.671 2.11032 36.75 2.30109 36.75 2.5V3.327C37.01 3.347 37.2563 3.37233 37.489 3.403C38.661 3.561 39.61 3.893 40.359 4.641C41.107 5.39 41.439 6.339 41.597 7.511C41.75 8.651 41.75 10.106 41.75 11.944V14.056C41.75 15.894 41.75 17.35 41.597 18.489C41.439 19.661 41.107 20.61 40.359 21.359C39.61 22.107 38.661 22.439 37.489 22.597C36.349 22.75 34.894 22.75 33.056 22.75H28.945C27.107 22.75 25.651 22.75 24.512 22.597C23.34 22.439 22.391 22.107 21.642 21.359C20.894 20.61 20.562 19.661 20.404 18.489C20.251 17.349 20.251 15.894 20.251 14.056V11.944C20.251 10.106 20.251 8.65 20.404 7.511C20.562 6.339 20.894 5.39 21.642 4.641C22.391 3.893 23.34 3.561 24.512 3.403C24.7453 3.37233 24.9916 3.347 25.251 3.327V2.5C25.251 2.30126 25.3299 2.11065 25.4703 1.97002C25.6107 1.8294 25.8012 1.75026 26 1.75ZM24.71 4.89C23.705 5.025 23.125 5.279 22.702 5.702C22.279 6.125 22.025 6.705 21.89 7.71C21.8673 7.88 21.848 8.05967 21.832 8.249H40.168C40.152 8.05967 40.1326 7.87967 40.11 7.709C39.975 6.704 39.721 6.124 39.298 5.701C38.875 5.278 38.295 5.024 37.289 4.889C36.262 4.751 34.907 4.749 33 4.749H29C27.093 4.749 25.739 4.752 24.71 4.89ZM21.75 12C21.75 11.146 21.75 10.403 21.763 9.75H40.237C40.25 10.403 40.25 11.146 40.25 12V14C40.25 15.907 40.248 17.262 40.11 18.29C39.975 19.295 39.721 19.875 39.298 20.298C38.875 20.721 38.295 20.975 37.289 21.11C36.262 21.248 34.907 21.25 33 21.25H29C27.093 21.25 25.739 21.248 24.71 21.11C23.705 20.975 23.125 20.721 22.702 20.298C22.279 19.875 22.025 19.295 21.89 18.289C21.752 17.262 21.75 15.907 21.75 14V12Z" fill="#D9D9D9"/>
<path d="M1.19775 37V29H3.90088C4.52588 29 5.0389 29.1068 5.43994 29.3203C5.84098 29.5312 6.13786 29.8216 6.33057 30.1914C6.52327 30.5612 6.61963 30.9818 6.61963 31.4531C6.61963 31.9245 6.52327 32.3424 6.33057 32.707C6.13786 33.0716 5.84229 33.3581 5.44385 33.5664C5.04541 33.7721 4.5363 33.875 3.9165 33.875H1.729V33H3.88525C4.31234 33 4.65609 32.9375 4.9165 32.8125C5.17952 32.6875 5.36963 32.5104 5.48682 32.2812C5.60661 32.0495 5.6665 31.7734 5.6665 31.4531C5.6665 31.1328 5.60661 30.8529 5.48682 30.6133C5.36702 30.3737 5.17562 30.1888 4.9126 30.0586C4.64958 29.9258 4.30192 29.8594 3.86963 29.8594H2.1665V37H1.19775ZM4.96338 33.4062L6.93213 37H5.80713L3.86963 33.4062H4.96338ZM10.5601 37.125C9.98193 37.125 9.48324 36.9974 9.06396 36.7422C8.6473 36.4844 8.32568 36.125 8.09912 35.6641C7.87516 35.2005 7.76318 34.6615 7.76318 34.0469C7.76318 33.4323 7.87516 32.8906 8.09912 32.4219C8.32568 31.9505 8.64079 31.5833 9.04443 31.3203C9.45068 31.0547 9.92464 30.9219 10.4663 30.9219C10.7788 30.9219 11.0874 30.974 11.3921 31.0781C11.6968 31.1823 11.9741 31.3516 12.2241 31.5859C12.4741 31.8177 12.6733 32.125 12.8218 32.5078C12.9702 32.8906 13.0444 33.362 13.0444 33.9219V34.3125H8.41943V33.5156H12.1069C12.1069 33.1771 12.0392 32.875 11.9038 32.6094C11.771 32.3437 11.5809 32.1341 11.3335 31.9805C11.0887 31.8268 10.7996 31.75 10.4663 31.75C10.0991 31.75 9.78141 31.8411 9.51318 32.0234C9.24756 32.2031 9.04313 32.4375 8.8999 32.7266C8.75667 33.0156 8.68506 33.3255 8.68506 33.6562V34.1875C8.68506 34.6406 8.76318 35.0247 8.91943 35.3398C9.07829 35.6523 9.29834 35.8906 9.57959 36.0547C9.86084 36.2161 10.1877 36.2969 10.5601 36.2969C10.8022 36.2969 11.021 36.263 11.2163 36.1953C11.4142 36.125 11.5848 36.0208 11.728 35.8828C11.8713 35.7422 11.9819 35.5677 12.0601 35.3594L12.9507 35.6094C12.8569 35.9115 12.6994 36.1771 12.478 36.4062C12.2567 36.6328 11.9832 36.8099 11.6577 36.9375C11.3322 37.0625 10.9663 37.125 10.5601 37.125ZM18.6968 32.3437L17.8687 32.5781C17.8166 32.4401 17.7397 32.306 17.6382 32.1758C17.5392 32.043 17.4038 31.9336 17.2319 31.8477C17.0601 31.7617 16.84 31.7187 16.5718 31.7187C16.2046 31.7187 15.8986 31.8034 15.6538 31.9727C15.4116 32.1393 15.2905 32.3516 15.2905 32.6094C15.2905 32.8385 15.3739 33.0195 15.5405 33.1523C15.7072 33.2852 15.9676 33.3958 16.3218 33.4844L17.2124 33.7031C17.7489 33.8333 18.1486 34.0326 18.4116 34.3008C18.6746 34.5664 18.8062 34.9089 18.8062 35.3281C18.8062 35.6719 18.7072 35.9792 18.5093 36.25C18.314 36.5208 18.0405 36.7344 17.689 36.8906C17.3374 37.0469 16.9285 37.125 16.4624 37.125C15.8504 37.125 15.3439 36.9922 14.9429 36.7266C14.5418 36.4609 14.2879 36.0729 14.1812 35.5625L15.0562 35.3437C15.1395 35.6667 15.297 35.9089 15.5288 36.0703C15.7632 36.2318 16.0692 36.3125 16.4468 36.3125C16.8765 36.3125 17.2176 36.2214 17.4702 36.0391C17.7254 35.8542 17.853 35.6328 17.853 35.375C17.853 35.1667 17.7801 34.9922 17.6343 34.8516C17.4884 34.7083 17.2645 34.6016 16.9624 34.5312L15.9624 34.2969C15.4129 34.1667 15.0093 33.9648 14.7515 33.6914C14.4963 33.4154 14.3687 33.0703 14.3687 32.6562C14.3687 32.3177 14.4637 32.0182 14.6538 31.7578C14.8465 31.4974 15.1082 31.293 15.439 31.1445C15.7723 30.9961 16.1499 30.9219 16.5718 30.9219C17.1655 30.9219 17.6317 31.0521 17.9702 31.3125C18.3114 31.5729 18.5535 31.9167 18.6968 32.3437ZM22.7095 37.125C22.1313 37.125 21.6326 36.9974 21.2134 36.7422C20.7967 36.4844 20.4751 36.125 20.2485 35.6641C20.0246 35.2005 19.9126 34.6615 19.9126 34.0469C19.9126 33.4323 20.0246 32.8906 20.2485 32.4219C20.4751 31.9505 20.7902 31.5833 21.1938 31.3203C21.6001 31.0547 22.0741 30.9219 22.6157 30.9219C22.9282 30.9219 23.2368 30.974 23.5415 31.0781C23.8462 31.1823 24.1235 31.3516 24.3735 31.5859C24.6235 31.8177 24.8228 32.125 24.9712 32.5078C25.1196 32.8906 25.1938 33.362 25.1938 33.9219V34.3125H20.5688V33.5156H24.2563C24.2563 33.1771 24.1886 32.875 24.0532 32.6094C23.9204 32.3437 23.7303 32.1341 23.4829 31.9805C23.2381 31.8268 22.9491 31.75 22.6157 31.75C22.2485 31.75 21.9308 31.8411 21.6626 32.0234C21.397 32.2031 21.1925 32.4375 21.0493 32.7266C20.9061 33.0156 20.8345 33.3255 20.8345 33.6562V34.1875C20.8345 34.6406 20.9126 35.0247 21.0688 35.3398C21.2277 35.6523 21.4478 35.8906 21.729 36.0547C22.0103 36.2161 22.3371 36.2969 22.7095 36.2969C22.9517 36.2969 23.1704 36.263 23.3657 36.1953C23.5636 36.125 23.7342 36.0208 23.8774 35.8828C24.0207 35.7422 24.1313 35.5677 24.2095 35.3594L25.1001 35.6094C25.0063 35.9115 24.8488 36.1771 24.6274 36.4062C24.4061 36.6328 24.1326 36.8099 23.8071 36.9375C23.4816 37.0625 23.1157 37.125 22.7095 37.125ZM26.5962 37V31H27.4868V31.9062H27.5493C27.6587 31.6094 27.8566 31.3685 28.1431 31.1836C28.4295 30.9987 28.7524 30.9062 29.1118 30.9062C29.1795 30.9062 29.2642 30.9076 29.3657 30.9102C29.4673 30.9128 29.5441 30.9167 29.5962 30.9219V31.8594C29.5649 31.8516 29.4933 31.8398 29.3813 31.8242C29.272 31.806 29.1561 31.7969 29.0337 31.7969C28.742 31.7969 28.4816 31.8581 28.2524 31.9805C28.0259 32.1003 27.8462 32.2669 27.7134 32.4805C27.5832 32.6914 27.5181 32.9323 27.5181 33.2031V37H26.5962ZM35.7778 31L33.5591 37H32.6216L30.4028 31H31.4028L33.0591 35.7812H33.1216L34.7778 31H35.7778ZM38.5776 37.1406C38.1974 37.1406 37.8524 37.069 37.5425 36.9258C37.2326 36.7799 36.9865 36.5703 36.8042 36.2969C36.6219 36.0208 36.5308 35.6875 36.5308 35.2969C36.5308 34.9531 36.5985 34.6745 36.7339 34.4609C36.8693 34.2448 37.0503 34.0755 37.2769 33.9531C37.5034 33.8307 37.7534 33.7396 38.0269 33.6797C38.3029 33.6172 38.5802 33.5677 38.8589 33.5313C39.2235 33.4844 39.519 33.4492 39.7456 33.4258C39.9748 33.3997 40.1414 33.3568 40.2456 33.2969C40.3524 33.237 40.4058 33.1328 40.4058 32.9844V32.9531C40.4058 32.5677 40.3003 32.2682 40.0894 32.0547C39.881 31.8411 39.5646 31.7344 39.1401 31.7344C38.7 31.7344 38.355 31.8307 38.105 32.0234C37.855 32.2161 37.6792 32.4219 37.5776 32.6406L36.7026 32.3281C36.8589 31.9635 37.0672 31.6797 37.3276 31.4766C37.5907 31.2708 37.8771 31.1276 38.187 31.0469C38.4995 30.9635 38.8068 30.9219 39.1089 30.9219C39.3016 30.9219 39.5229 30.9453 39.7729 30.9922C40.0256 31.0365 40.269 31.1289 40.5034 31.2695C40.7404 31.4102 40.937 31.6224 41.0933 31.9062C41.2495 32.1901 41.3276 32.5703 41.3276 33.0469V37H40.4058V36.1875H40.3589C40.2964 36.3177 40.1922 36.457 40.0464 36.6055C39.9006 36.7539 39.7065 36.8802 39.4644 36.9844C39.2222 37.0885 38.9266 37.1406 38.5776 37.1406ZM38.7183 36.3125C39.0828 36.3125 39.3901 36.2409 39.6401 36.0977C39.8927 35.9544 40.0828 35.7695 40.2104 35.543C40.3407 35.3164 40.4058 35.0781 40.4058 34.8281V33.9844C40.3667 34.0312 40.2808 34.0742 40.1479 34.1133C40.0177 34.1497 39.8667 34.1823 39.6948 34.2109C39.5256 34.237 39.3602 34.2604 39.1987 34.2812C39.0399 34.2995 38.911 34.3151 38.812 34.3281C38.5724 34.3594 38.3485 34.4102 38.1401 34.4805C37.9344 34.5482 37.7677 34.651 37.6401 34.7891C37.5151 34.9245 37.4526 35.1094 37.4526 35.3437C37.4526 35.6641 37.5711 35.9062 37.8081 36.0703C38.0477 36.2318 38.3511 36.3125 38.7183 36.3125ZM45.6196 31V31.7812H42.5103V31H45.6196ZM43.4165 29.5625H44.3384V35.2812C44.3384 35.5417 44.3761 35.737 44.4517 35.8672C44.5298 35.9948 44.6287 36.0807 44.7485 36.125C44.8709 36.1667 44.9998 36.1875 45.1353 36.1875C45.2368 36.1875 45.3201 36.1823 45.3853 36.1719C45.4504 36.1589 45.5024 36.1484 45.5415 36.1406L45.729 36.9687C45.6665 36.9922 45.5793 37.0156 45.4673 37.0391C45.3553 37.0651 45.2134 37.0781 45.0415 37.0781C44.7811 37.0781 44.5259 37.0221 44.2759 36.9102C44.0285 36.7982 43.8228 36.6276 43.6587 36.3984C43.4972 36.1693 43.4165 35.8802 43.4165 35.5312V29.5625ZM47.0063 37V31H47.9282V37H47.0063ZM47.4751 30C47.2954 30 47.1405 29.9388 47.0103 29.8164C46.8826 29.694 46.8188 29.5469 46.8188 29.375C46.8188 29.2031 46.8826 29.056 47.0103 28.9336C47.1405 28.8112 47.2954 28.75 47.4751 28.75C47.6548 28.75 47.8084 28.8112 47.936 28.9336C48.0662 29.056 48.1313 29.2031 48.1313 29.375C48.1313 29.5469 48.0662 29.694 47.936 29.8164C47.8084 29.9388 47.6548 30 47.4751 30ZM52.0542 37.125C51.5125 37.125 51.0373 36.9961 50.6284 36.7383C50.2222 36.4805 49.9045 36.1198 49.6753 35.6562C49.4487 35.1927 49.3354 34.651 49.3354 34.0312C49.3354 33.4062 49.4487 32.8607 49.6753 32.3945C49.9045 31.9284 50.2222 31.5664 50.6284 31.3086C51.0373 31.0508 51.5125 30.9219 52.0542 30.9219C52.5959 30.9219 53.0698 31.0508 53.4761 31.3086C53.8849 31.5664 54.2026 31.9284 54.4292 32.3945C54.6584 32.8607 54.7729 33.4062 54.7729 34.0312C54.7729 34.651 54.6584 35.1927 54.4292 35.6562C54.2026 36.1198 53.8849 36.4805 53.4761 36.7383C53.0698 36.9961 52.5959 37.125 52.0542 37.125ZM52.0542 36.2969C52.4657 36.2969 52.8042 36.1914 53.0698 35.9805C53.3354 35.7695 53.5321 35.4922 53.6597 35.1484C53.7873 34.8047 53.8511 34.4323 53.8511 34.0312C53.8511 33.6302 53.7873 33.2565 53.6597 32.9102C53.5321 32.5638 53.3354 32.2839 53.0698 32.0703C52.8042 31.8568 52.4657 31.75 52.0542 31.75C51.6427 31.75 51.3042 31.8568 51.0386 32.0703C50.7729 32.2839 50.5763 32.5638 50.4487 32.9102C50.3211 33.2565 50.2573 33.6302 50.2573 34.0312C50.2573 34.4323 50.3211 34.8047 50.4487 35.1484C50.5763 35.4922 50.7729 35.7695 51.0386 35.9805C51.3042 36.1914 51.6427 36.2969 52.0542 36.2969ZM57.1021 33.3906V37H56.1802V31H57.0708V31.9375H57.1489C57.2896 31.6328 57.5031 31.388 57.7896 31.2031C58.076 31.0156 58.4458 30.9219 58.8989 30.9219C59.3052 30.9219 59.6606 31.0052 59.9653 31.1719C60.27 31.3359 60.507 31.5859 60.6763 31.9219C60.8455 32.2552 60.9302 32.6771 60.9302 33.1875V37H60.0083V33.25C60.0083 32.7786 59.8859 32.4115 59.6411 32.1484C59.3963 31.8828 59.0604 31.75 58.6333 31.75C58.339 31.75 58.076 31.8138 57.8442 31.9414C57.6151 32.069 57.4341 32.2552 57.3013 32.5C57.1685 32.7448 57.1021 33.0417 57.1021 33.3906Z" fill="#D9D9D9"/>
</svg>
