<svg width="31" height="39" viewBox="0 0 31 39" fill="none" xmlns="http://www.w3.org/2000/svg">
<path d="M5.5 7.99998L15.232 3.13398C15.3152 3.09243 15.407 3.0708 15.5 3.0708C15.593 3.0708 15.6848 3.09243 15.768 3.13398L25.5 7.99998M23.5 11V19C23.5 19.5304 23.2893 20.0391 22.9142 20.4142C22.5391 20.7893 22.0304 21 21.5 21H9.5C8.96957 21 8.46086 20.7893 8.08579 20.4142C7.71071 20.0391 7.5 19.5304 7.5 19V11" stroke="#D9D9D9" stroke-width="1.5" stroke-linecap="round" stroke-linejoin="round"/>
<path d="M1.13428 37V29H2.10303V32.5625H6.36865V29H7.3374V37H6.36865V33.4219H2.10303V37H1.13428ZM11.5894 37.125C11.0477 37.125 10.5724 36.9961 10.1636 36.7383C9.75732 36.4805 9.43962 36.1198 9.21045 35.6562C8.98389 35.1927 8.87061 34.651 8.87061 34.0312C8.87061 33.4062 8.98389 32.8607 9.21045 32.3945C9.43962 31.9284 9.75732 31.5664 10.1636 31.3086C10.5724 31.0508 11.0477 30.9219 11.5894 30.9219C12.131 30.9219 12.605 31.0508 13.0112 31.3086C13.4201 31.5664 13.7378 31.9284 13.9644 32.3945C14.1935 32.8607 14.3081 33.4062 14.3081 34.0312C14.3081 34.651 14.1935 35.1927 13.9644 35.6562C13.7378 36.1198 13.4201 36.4805 13.0112 36.7383C12.605 36.9961 12.131 37.125 11.5894 37.125ZM11.5894 36.2969C12.0008 36.2969 12.3394 36.1914 12.605 35.9805C12.8706 35.7695 13.0672 35.4922 13.1948 35.1484C13.3224 34.8047 13.3862 34.4323 13.3862 34.0312C13.3862 33.6302 13.3224 33.2565 13.1948 32.9102C13.0672 32.5638 12.8706 32.2839 12.605 32.0703C12.3394 31.8568 12.0008 31.75 11.5894 31.75C11.1779 31.75 10.8394 31.8568 10.5737 32.0703C10.3081 32.2839 10.1115 32.5638 9.98389 32.9102C9.85628 33.2565 9.79248 33.6302 9.79248 34.0312C9.79248 34.4323 9.85628 34.8047 9.98389 35.1484C10.1115 35.4922 10.3081 35.7695 10.5737 35.9805C10.8394 36.1914 11.1779 36.2969 11.5894 36.2969ZM15.7153 37V31H16.606V31.9375H16.6841C16.8091 31.6172 17.0109 31.3685 17.2896 31.1914C17.5682 31.0117 17.9028 30.9219 18.2935 30.9219C18.6893 30.9219 19.0187 31.0117 19.2817 31.1914C19.5474 31.3685 19.7544 31.6172 19.9028 31.9375H19.9653C20.119 31.6276 20.3494 31.3815 20.6567 31.1992C20.964 31.0143 21.3325 30.9219 21.7622 30.9219C22.2987 30.9219 22.7375 31.0898 23.0786 31.4258C23.4198 31.7591 23.5903 32.2786 23.5903 32.9844V37H22.6685V32.9844C22.6685 32.5417 22.5474 32.2253 22.3052 32.0352C22.063 31.8451 21.7778 31.75 21.4497 31.75C21.0278 31.75 20.701 31.8776 20.4692 32.1328C20.2375 32.3854 20.1216 32.7057 20.1216 33.0937V37H19.1841V32.8906C19.1841 32.5495 19.0734 32.2747 18.8521 32.0664C18.6307 31.8555 18.3455 31.75 17.9966 31.75C17.757 31.75 17.533 31.8138 17.3247 31.9414C17.119 32.069 16.9523 32.2461 16.8247 32.4727C16.6997 32.6966 16.6372 32.9557 16.6372 33.25V37H15.7153ZM27.7915 37.125C27.2134 37.125 26.7147 36.9974 26.2954 36.7422C25.8787 36.4844 25.5571 36.125 25.3306 35.6641C25.1066 35.2005 24.9946 34.6615 24.9946 34.0469C24.9946 33.4323 25.1066 32.8906 25.3306 32.4219C25.5571 31.9505 25.8722 31.5833 26.2759 31.3203C26.6821 31.0547 27.1561 30.9219 27.6978 30.9219C28.0103 30.9219 28.3188 30.974 28.6235 31.0781C28.9282 31.1823 29.2056 31.3516 29.4556 31.5859C29.7056 31.8177 29.9048 32.125 30.0532 32.5078C30.2017 32.8906 30.2759 33.362 30.2759 33.9219V34.3125H25.6509V33.5156H29.3384C29.3384 33.1771 29.2707 32.875 29.1353 32.6094C29.0024 32.3437 28.8123 32.1341 28.5649 31.9805C28.3201 31.8268 28.0311 31.75 27.6978 31.75C27.3306 31.75 27.0129 31.8411 26.7446 32.0234C26.479 32.2031 26.2746 32.4375 26.1313 32.7266C25.9881 33.0156 25.9165 33.3255 25.9165 33.6562V34.1875C25.9165 34.6406 25.9946 35.0247 26.1509 35.3398C26.3097 35.6523 26.5298 35.8906 26.811 36.0547C27.0923 36.2161 27.4191 36.2969 27.7915 36.2969C28.0337 36.2969 28.2524 36.263 28.4478 36.1953C28.6457 36.125 28.8162 36.0208 28.9595 35.8828C29.1027 35.7422 29.2134 35.5677 29.2915 35.3594L30.1821 35.6094C30.0884 35.9115 29.9308 36.1771 29.7095 36.4062C29.4881 36.6328 29.2147 36.8099 28.8892 36.9375C28.5636 37.0625 28.1978 37.125 27.7915 37.125Z" fill="#D9D9D9"/>
</svg>
